<?xml version="1.0" encoding="UTF-8" standalone="no"?>
<!DOCTYPE svg PUBLIC "-//W3C//DTD SVG 20010904//EN" "http://www.w3.org/TR/2001/REC-SVG-20010904/DTD/svg10.dtd">
<svg version="1.0" xmlns="http://www.w3.org/2000/svg" width="800.000000pt" height="502.000000pt" viewBox="0 0 800.000000 502.000000" preserveAspectRatio="xMidYMid meet">
<metadata>
Created by potrace 1.11, written by Peter Selinger 2001-2013
</metadata>
<g transform="translate(0.000000,502.000000) scale(0.100000,-0.100000)" fill="#000000" stroke="none">
<path d="M4555 4944 c-49 -41 -92 -79 -94 -85 -2 -6 6 -20 17 -32 41 -45 158 -207 247 -342 146 -221 251 -414 355 -650 29 -66 54 -121 55 -123 3 -4 228 88 237 96 20 20 -224 506 -370 736 -128 203 -327 475 -347 475 -5 0 -50 -34 -100 -75z"/>
<path d="M6075 4449 c-71 -26 -134 -49 -139 -51 -4 -2 13 -67 39 -143 48 -144 109 -354 140 -482 12 -51 22 -73 32 -73 15 0 276 60 280 64 12 11 -195 708 -216 727 -3 3 -64 -16 -136 -42z"/>
<path d="M7032 3710 c-62 -15 -115 -30 -118 -33 -3 -2 9 -65 25 -138 61 -277 108 -600 132 -914 14 -184 17 -607 6 -811 l-8 -152 48 -6 c26 -3 84 -8 129 -12 l81 -6 7 49 c14 105 19 670 7 858 -22 343 -62 650 -127 965 -41 198 -47 223 -60 226 -5 1 -60 -11 -122 -26z"/>
<path d="M227 3554 c-66 -21 -130 -85 -145 -146 -18 -70 -15 -306 3 -359 39 -109 161 -169 285 -139 40 10 65 24 100 59 57 55 70 93 70 209 l0 82 -121 0 -120 0 3 -42 3 -43 68 -3 67 -3 0 -30 c0 -43 -23 -92 -55 -117 -21 -17 -41 -22 -82 -22 -49 0 -59 4 -88 33 -29 29 -34 42 -40 101 -11 98 -1 235 19 274 45 88 193 80 232 -13 14 -33 17 -35 64 -35 56 0 60 7 37 63 -20 46 -64 95 -106 116 -53 27 -136 34 -194 15z"/>
<path d="M2990 3235 l0 -325 50 0 c38 0 50 4 50 15 0 19 -2 19 45 -5 92 -47 198 -2 225 95 18 63 9 240 -14 287 -34 70 -142 99 -219 58 l-37 -20 0 110 0 110 -50 0 -50 0 0 -325z m254 32 c53 -53 39 -248 -19 -271 -60 -23 -118 13 -131 79 -12 67 1 164 27 191 31 33 91 33 123 1z"/>
<path d="M3580 3290 c0 -298 5 -331 59 -363 17 -10 50 -17 80 -17 l51 0 0 40 c0 39 -1 40 -33 40 -18 0 -38 5 -45 12 -9 9 -12 86 -12 285 l0 273 -50 0 -50 0 0 -270z"/>
<path d="M4820 3235 l0 -325 80 0 80 0 0 325 0 325 -80 0 -80 0 0 -325z"/>
<path d="M5200 3235 l0 -325 80 0 80 0 2 160 3 160 100 -158 101 -157 72 -3 72 -3 0 326 0 325 -80 0 -80 0 -2 -160 -3 -160 -100 158 -101 157 -72 3 -72 3 0 -326z"/>
<path d="M5930 3235 l0 -325 80 0 80 0 0 115 0 115 61 0 c93 0 146 17 194 64 87 83 87 209 0 292 -55 54 -100 64 -274 64 l-141 0 0 -325z m301 156 c11 -13 19 -31 19 -41 0 -40 -34 -63 -99 -68 l-61 -4 0 72 0 72 61 -4 c49 -4 66 -9 80 -27z"/>
<path d="M905 3360 c-47 -24 -45 -24 -45 -5 0 11 -12 15 -50 15 l-50 0 0 -230 0 -230 49 0 50 0 3 166 3 166 28 24 c32 28 82 32 108 8 15 -14 20 -12 52 23 20 20 33 41 30 46 -9 16 -71 37 -106 37 -18 0 -50 -9 -72 -20z"/>
<path d="M1310 3358 c-80 -41 -116 -122 -108 -243 8 -121 55 -184 152 -206 69 -15 132 -5 185 29 47 30 48 46 9 75 -27 20 -28 20 -47 3 -26 -24 -102 -32 -141 -16 -32 13 -60 55 -60 89 0 20 7 21 148 23 l147 3 -3 60 c-5 121 -69 192 -179 202 -47 4 -66 0 -103 -19z m124 -68 c28 -10 66 -64 66 -92 0 -16 -11 -18 -100 -18 -93 0 -100 1 -100 20 0 35 24 73 55 86 37 16 47 17 79 4z"/>
<path d="M1945 3360 c-47 -24 -45 -24 -45 -5 0 11 -12 15 -50 15 l-50 0 0 -230 0 -230 49 0 50 0 3 166 3 166 28 24 c30 26 75 31 109 13 38 -20 48 -69 48 -224 l0 -145 45 0 45 0 0 178 c0 204 -8 231 -75 269 -50 28 -108 29 -160 3z"/>
<path d="M2512 3367 c-42 -13 -98 -75 -111 -124 -15 -54 -13 -151 4 -209 40 -137 213 -178 316 -75 47 47 62 102 57 206 -6 106 -32 155 -102 190 -53 27 -107 31 -164 12z m135 -101 c25 -22 28 -31 31 -105 6 -119 -22 -171 -93 -171 -71 0 -99 52 -93 171 3 74 6 83 31 105 18 15 41 24 62 24 21 0 44 -9 62 -24z"/>
<path d="M4045 3369 c-117 -36 -169 -224 -103 -367 31 -64 92 -97 183 -97 52 1 81 6 111 22 64 34 69 45 34 78 l-29 27 -34 -21 c-51 -31 -118 -29 -157 7 -16 15 -33 42 -36 60 l-6 32 151 0 151 0 0 43 c0 162 -121 260 -265 216z m138 -109 c15 -17 27 -41 27 -55 0 -25 0 -25 -101 -25 l-101 0 6 32 c17 86 109 113 169 48z"/>
<path d="M6445 2804 c-66 -7 -130 -13 -142 -13 -21 -1 -22 -5 -18 -43 3 -24 7 -63 10 -88 2 -25 7 -169 11 -320 9 -359 -11 -700 -60 -1050 -8 -57 -13 -107 -10 -109 5 -5 287 -51 291 -47 4 4 40 268 48 351 4 39 8 80 10 91 17 112 27 450 21 747 -7 413 -13 499 -33 496 -4 -1 -62 -7 -128 -15z"/>
<path d="M4920 2756 c-58 -13 -104 -27 -103 -33 12 -60 45 -316 54 -422 17 -195 6 -634 -20 -827 -35 -260 -121 -623 -189 -802 -15 -38 -17 -54 -9 -57 7 -2 61 -22 121 -45 60 -22 110 -39 111 -38 7 8 88 269 114 368 150 565 179 1188 85 1773 -20 124 -5 116 -164 83z"/>
<path d="M3847 2612 c-21 -23 -22 -81 -3 -108 13 -17 31 -20 153 -24 l138 -5 0 -35 0 -35 -96 -3 c-110 -3 -130 -15 -132 -76 -2 -62 21 -75 132 -78 l96 -3 3 -43 c5 -68 -3 -72 -144 -72 -144 0 -164 -9 -164 -79 0 -73 37 -86 219 -79 133 6 174 20 211 76 25 35 25 38 28 290 2 227 0 257 -14 274 -16 16 -35 18 -214 18 -178 0 -198 -2 -213 -18z"/>
<path d="M5570 2464 c-63 -7 -116 -13 -118 -13 -2 -1 -1 -9 2 -18 3 -10 10 -117 16 -238 32 -662 -87 -1345 -343 -1961 l-54 -131 110 -49 c60 -27 113 -50 117 -52 12 -5 105 223 175 430 186 544 266 1077 251 1668 -7 302 -14 381 -30 379 -6 -1 -63 -7 -126 -15z"/>
<path d="M1461 2342 c-22 -17 -22 -22 -19 -242 4 -262 9 -282 87 -328 45 -27 48 -27 224 -27 165 0 180 1 193 19 15 21 19 73 6 93 -16 24 -67 33 -202 33 -132 0 -140 1 -154 22 -9 12 -16 33 -16 45 0 23 2 23 119 23 99 0 122 3 139 18 28 22 35 61 19 92 -12 24 -16 25 -142 30 l-130 5 -3 48 -3 47 168 0 c136 0 173 3 191 16 29 20 30 76 2 104 -19 19 -33 20 -239 20 -194 0 -221 -2 -240 -18z"/>
<path d="M2077 2342 c-15 -16 -17 -52 -17 -294 0 -307 -1 -302 67 -302 25 0 41 7 54 23 17 21 19 43 19 237 l0 214 93 0 c142 0 135 12 139 -236 3 -202 3 -206 27 -225 32 -26 67 -24 96 6 25 24 25 26 25 209 0 225 -9 278 -59 327 -50 50 -91 59 -272 59 -138 0 -158 -2 -172 -18z"/>
<path d="M2798 2350 c-77 -23 -113 -65 -123 -146 -14 -101 37 -190 120 -213 22 -6 68 -11 103 -11 74 0 102 -12 102 -44 0 -43 -23 -51 -167 -54 -122 -4 -134 -6 -148 -25 -19 -28 -19 -71 0 -91 24 -23 75 -29 205 -24 143 6 194 26 229 89 20 34 23 52 19 114 -6 125 -53 165 -206 175 -76 5 -97 10 -108 25 -17 23 -17 27 0 51 13 17 31 20 156 24 156 6 160 7 160 71 0 63 -17 69 -176 68 -76 0 -151 -4 -166 -9z"/>
<path d="M3260 2340 c-19 -19 -20 -33 -20 -226 0 -224 7 -268 49 -310 55 -55 72 -59 264 -59 165 0 180 1 193 19 15 21 19 73 6 93 -16 24 -67 33 -202 33 -132 0 -140 1 -154 22 -9 12 -16 33 -16 45 0 23 2 23 120 23 115 0 122 1 145 25 28 27 31 48 12 85 -12 24 -16 25 -142 30 l-130 5 -3 48 -3 47 174 0 c156 0 176 2 190 18 23 25 21 78 -3 102 -19 19 -33 20 -240 20 -207 0 -221 -1 -240 -20z"/>
<path d="M7788 2142 l-128 -3 0 -232 c0 -355 -30 -711 -90 -1062 -16 -93 -26 -173 -22 -176 9 -8 234 -50 239 -45 6 6 41 208 63 360 46 325 74 736 68 1006 l-3 155 -127 -3z"/>
</g>
</svg>